<svg width="19" height="27" viewBox="0 0 19 27" fill="none" xmlns="http://www.w3.org/2000/svg">
<path d="M15.8475 26.9999C15.4419 27.0008 15.0412 26.9373 14.6747 26.8138C14.3083 26.6903 13.9854 26.5101 13.7299 26.2864L0.617579 14.716C0.218285 14.371 0 13.9382 0 13.4915C0 13.0448 0.218285 12.612 0.617579 12.267L14.1915 0.696635C14.6523 0.302826 15.3144 0.0551736 16.0323 0.00815998C16.7501 -0.0388536 17.4649 0.118622 18.0193 0.445944C18.5737 0.773266 18.9223 1.24362 18.9885 1.75354C19.0547 2.26346 18.833 2.77116 18.3722 3.16497L6.23716 13.5011L17.965 23.8373C18.297 24.1204 18.5078 24.4651 18.5727 24.8306C18.6375 25.1961 18.5536 25.5672 18.3308 25.8999C18.108 26.2326 17.7558 26.513 17.3157 26.7079C16.8756 26.9029 16.3661 27.0042 15.8475 26.9999Z" fill="#931fb1"/>
</svg>
