<svg width="256" height="284" viewBox="0 0 256 284" fill="none" xmlns="http://www.w3.org/2000/svg">
<path d="M255 281.976L1 281.5" stroke="white" stroke-width="3"/>
<path d="M2.00003 283L2.00002 2.56335" stroke="white" stroke-width="3"/>
<path d="M0.5 4L130.5 4" stroke="white" stroke-width="3"/>
<path d="M130 2.5L130 47.5" stroke="white" stroke-width="3"/>
<circle cx="130.396" cy="67.0943" r="19.2673" stroke="white" stroke-width="3"/>
<path d="M144.871 126.201C144.871 136.623 142.932 145.986 139.861 152.686C136.729 159.518 132.708 163.041 128.799 163.041C124.89 163.041 120.868 159.518 117.737 152.686C114.666 145.986 112.726 136.623 112.726 126.201C112.726 115.779 114.666 106.417 117.737 99.716C120.868 92.8842 124.89 89.3616 128.799 89.3616C132.708 89.3616 136.729 92.8842 139.861 99.716C142.932 106.417 144.871 115.779 144.871 126.201Z" stroke="white" stroke-width="3"/>
<path d="M120.013 94.2516C117.743 94.8886 112.025 99.044 108.031 107.031C104.038 115.019 103.239 132.591 102.44 140.579M105.635 142.176C106.388 142.684 106.434 143.943 106.434 144.572M104.038 142.975C103.852 143.951 103.915 146.788 104.038 147.767M102.44 142.176C102.428 142.792 101.642 146.17 101.642 148.566M101.09 142.999C100.761 143.814 100.044 144.572 100.044 146.969M100.044 142.176C99.4648 142.506 98.786 143.91 98.4466 144.572" stroke="white" stroke-width="3" stroke-linecap="round" stroke-linejoin="round"/>
<path d="M138.384 94.2516C140.653 94.8886 146.371 99.044 150.365 107.031C154.358 115.019 155.157 133.39 155.956 141.377M152.761 142.176C152.009 142.684 151.962 143.943 151.962 144.572M154.358 142.975C154.544 143.951 154.481 146.788 154.358 147.767M155.956 142.176C155.968 142.792 156.755 146.17 156.755 148.566M157.306 142.999C157.636 143.814 158.352 144.572 158.352 146.969M158.352 142.176C158.931 142.506 159.61 143.91 159.95 144.572" stroke="white" stroke-width="3" stroke-linecap="round" stroke-linejoin="round"/>
<path d="M132.792 162.943C135.987 170.132 137.363 196.268 137.585 200.484C137.807 204.7 137.585 222.849 137.585 226.843M137.585 226.843C135.987 228.44 135.189 232.434 135.189 232.434C134.39 238.025 136.786 244.415 139.182 242.818C143.975 236.428 137.232 223.782 137.585 226.843Z" stroke="white" stroke-width="3" stroke-linecap="round" stroke-linejoin="round"/>
<path d="M123.337 162.943C120.142 170.132 118.766 196.268 118.544 200.484C118.322 204.7 118.544 222.849 118.544 226.843M118.544 226.843C120.142 228.44 120.94 232.434 120.94 232.434C121.739 238.025 119.343 244.415 116.947 242.818C112.154 236.428 118.897 223.782 118.544 226.843Z" stroke="white" stroke-width="3" stroke-linecap="round" stroke-linejoin="round"/>
</svg>
