<svg width="35" height="39" viewBox="0 0 35 39" fill="none" xmlns="http://www.w3.org/2000/svg">
<path d="M34.8125 3.96097C34.6805 3.82894 34.5044 3.74091 34.3284 3.74091H27.6388V0.660161C27.6388 0.308075 27.3307 0 26.9786 0H8.186C7.83391 0 7.52584 0.308075 7.52584 0.660161V3.74091H0.660161C0.484118 3.74091 0.308076 3.82894 0.176043 3.96097C0.044011 4.093 0 4.26904 0 4.44509C0 4.57712 0.132032 7.39381 1.14428 10.6506C2.55262 15.0077 4.9292 18.0884 8.09798 19.4968C9.15424 23.0176 11.5748 25.7903 14.6116 26.8906V27.0226C14.6116 30.6755 11.8389 33.5802 8.27402 33.5802C7.92194 33.5802 7.61386 33.8883 7.61386 34.2404V37.9813C7.61386 38.3334 7.92194 38.6414 8.27402 38.6414H26.9786C27.3307 38.6414 27.6388 38.3334 27.6388 37.9813V34.2404C27.6388 33.8883 27.3307 33.5802 26.9786 33.5802C23.3697 33.5802 20.421 30.6315 20.421 27.0226V26.9346C23.5898 25.8343 26.0544 23.0176 27.1106 19.4087C30.1474 17.9564 32.4799 14.9196 33.8443 10.6506C34.9005 7.39381 34.9886 4.53311 34.9886 4.44509C35.0326 4.26904 34.9445 4.093 34.8125 3.96097ZM1.36433 5.06124H7.52584V15.6238C7.52584 16.372 7.56985 17.0762 7.70188 17.7803C2.68466 14.7876 1.58439 7.3498 1.36433 5.06124ZM26.3184 34.8565V37.2771H8.93418V34.8565C12.8071 34.5484 15.7999 31.3357 15.8879 27.2427C16.416 27.3307 16.9882 27.4187 17.5603 27.4187C18.0884 27.4187 18.6166 27.3747 19.1007 27.2867C19.2767 31.2916 22.4015 34.5484 26.3184 34.8565ZM19.3207 25.9223C18.7486 26.0544 18.1764 26.1424 17.6043 26.1424C16.9441 26.1424 16.284 26.0544 15.6678 25.8783C15.5358 25.8343 15.3157 25.7463 15.2277 25.7463C11.5748 24.514 8.84616 20.465 8.84616 15.6678V1.36433H26.3184V4.00498V4.84118V15.6678C26.3184 20.465 23.5898 24.514 19.8929 25.7463L19.3207 25.9223ZM27.5067 17.6923C27.5947 17.0322 27.6828 16.328 27.6828 15.6238V5.06124H33.6682C33.4482 7.3498 32.3919 14.5676 27.5067 17.6923Z" fill="#FFB904"/>
<path d="M23.9417 9.24225L20.3328 8.71412L18.7044 5.41332C18.5284 5.06123 18.1323 4.79716 17.7362 4.79716C17.3401 4.79716 16.944 5.01722 16.768 5.41332L15.1396 8.71412L11.5307 9.24225C11.1346 9.28626 10.7825 9.59434 10.6505 9.99043C10.5184 10.3865 10.6065 10.8266 10.9145 11.0907L13.5552 13.6433L12.939 17.2522C12.851 17.6483 13.0271 18.0444 13.3791 18.3085C13.5552 18.4405 13.7752 18.5285 14.0393 18.5285C14.2153 18.5285 14.3914 18.4845 14.5234 18.3965L17.8682 16.7241L21.037 18.3965C21.3891 18.5725 21.8292 18.5725 22.1813 18.3085C22.5334 18.0444 22.6654 17.6483 22.6214 17.2522L22.0053 13.6433L24.6459 11.0907C24.954 10.7826 25.042 10.3865 24.91 9.99043C24.6899 9.59434 24.3818 9.28626 23.9417 9.24225ZM20.773 12.9392C20.5969 13.0712 20.5529 13.2912 20.5969 13.5113L21.2131 16.9881L18.1763 15.4038C18.0003 15.3157 17.7802 15.3157 17.5602 15.4038L14.3034 17.0322L14.9195 13.5113C14.9635 13.2912 14.8755 13.0712 14.7435 12.9392L12.2349 10.4746L15.7117 9.94642C15.9318 9.90241 16.1078 9.77038 16.1958 9.59434L17.7362 6.42556L19.2766 9.59434C19.3646 9.77038 19.5407 9.94642 19.7607 9.94642L23.2376 10.4746L20.773 12.9392Z" fill="#FFB904"/>
</svg>
