<svg width="623" height="583" viewBox="0 0 623 583" fill="none" xmlns="http://www.w3.org/2000/svg">
<path d="M495.561 212.63C537.594 248.602 612.814 291.094 596.504 305.843C580.195 320.592 470.667 305.359 409 335C351.032 362.863 350.57 394.213 322.5 428.5C294.211 463.139 250.047 474.336 215 452C180.035 430.204 153.283 412.566 120.241 362.169C86.8988 311.584 41.5813 254.023 62.9918 219.005C84.1008 183.798 172.075 170.243 229.847 166.196C287.618 162.149 315.187 167.609 344.156 160.752C373.426 154.083 404.179 135.636 424.129 141.233C444.079 146.829 453.226 176.47 495.561 212.63Z" fill="#FFB904"/>
</svg>
