<svg width="599" height="282" viewBox="0 0 599 282" fill="none" xmlns="http://www.w3.org/2000/svg">
<path d="M317 246.75H281.778V211.5H317V70.5H281.778V35.25L317 35.25V1.38565e-05L1.23266e-05 0L1.07858e-05 35.25H35.2222V70.5H9.24496e-06L3.08165e-06 211.5H35.2222V246.75H1.54083e-06L0 282L317 282V246.75ZM70.4445 70.5L70.4445 35.25H105.667V70.5L70.4445 70.5ZM140.889 70.5V35.25H176.111V70.5H140.889ZM211.333 70.5V35.25L246.556 35.25L246.556 70.5H211.333ZM70.4444 246.75L70.4445 211.5H105.667V246.75H70.4444ZM140.889 246.75V211.5L176.111 211.5V246.75L140.889 246.75ZM211.333 246.75L211.333 211.5H246.556V246.75H211.333Z" fill="#931BF1"/>
<path d="M317 246.75H281.778V211.5H317V70.5H281.778V35.25L317 35.25V1.38565e-05L1.23266e-05 0L1.07858e-05 35.25H35.2222V70.5H9.24496e-06L3.08165e-06 211.5H35.2222V246.75H1.54083e-06L0 282L317 282V246.75ZM70.4445 70.5L70.4445 35.25H105.667V70.5L70.4445 70.5ZM140.889 70.5V35.25H176.111V70.5H140.889ZM211.333 70.5V35.25L246.556 35.25L246.556 70.5H211.333ZM70.4444 246.75L70.4445 211.5H105.667V246.75H70.4444ZM140.889 246.75V211.5L176.111 211.5V246.75L140.889 246.75ZM211.333 246.75L211.333 211.5H246.556V246.75H211.333Z" fill="#FFB904"/>
<path d="M599 246.75H563.778V211.5H599V70.5H563.778V35.25L599 35.25V1.38565e-05L282 0V35.25H317.222V70.5H282V211.5H317.222V246.75H282V282L599 282V246.75ZM352.444 70.5V35.25H387.667V70.5L352.444 70.5ZM422.889 70.5V35.25H458.111V70.5H422.889ZM493.333 70.5V35.25L528.556 35.25V70.5H493.333ZM352.444 246.75V211.5H387.667V246.75H352.444ZM422.889 246.75V211.5L458.111 211.5V246.75L422.889 246.75ZM493.333 246.75V211.5H528.556V246.75H493.333Z" fill="#931BF1"/>
<path d="M599 246.75H563.778V211.5H599V70.5H563.778V35.25L599 35.25V1.38565e-05L282 0V35.25H317.222V70.5H282V211.5H317.222V246.75H282V282L599 282V246.75ZM352.444 70.5V35.25H387.667V70.5L352.444 70.5ZM422.889 70.5V35.25H458.111V70.5H422.889ZM493.333 70.5V35.25L528.556 35.25V70.5H493.333ZM352.444 246.75V211.5H387.667V246.75H352.444ZM422.889 246.75V211.5L458.111 211.5V246.75L422.889 246.75ZM493.333 246.75V211.5H528.556V246.75H493.333Z" fill="#FFB904"/>
</svg>
