<svg width="61" height="52" viewBox="0 0 61 52" fill="none" xmlns="http://www.w3.org/2000/svg">
<path d="M56.2839 26.7824C62.5721 20.645 62.5721 10.6795 56.2839 4.60298C49.9953 -1.53433 39.7848 -1.53433 33.4962 4.60298L30.5 7.04167L27.3947 4.66374C21.1064 -1.53433 10.8956 -1.53433 4.66955 4.60298C1.61878 7.58048 0 11.5302 0 15.723C0 19.9159 1.68104 23.8656 4.66955 26.8431L30.4457 52L56.2839 26.7824ZM3.98469 15.723C3.98469 12.5633 5.22992 9.64652 7.53356 7.45896C9.89947 5.14986 12.9502 3.99532 16.001 3.99532C19.0518 3.99532 21.7857 5.95833 24.4685 7.45896L30.4457 11.9167L36.4225 7.39818C41.9375 2.70833 48.7501 2.84079 53.3575 7.39818C55.599 9.58573 56.9063 12.5025 56.9063 15.6623C56.9063 18.8221 55.6611 21.7388 53.3575 23.9264L30.4457 46.3487L7.53356 23.9871C5.29217 21.7388 3.98469 18.8221 3.98469 15.723Z" fill="white"/>
</svg>
