<svg width="472" height="413" viewBox="0 0 472 413" fill="none" xmlns="http://www.w3.org/2000/svg">
<path d="M348.303 60.6523C394.118 85.7428 447.624 106.054 465.348 140.404C482.738 174.455 464.011 222.247 432.576 253.61C401.475 284.674 357.332 299.31 320.881 334.557C284.096 369.803 255.002 425.659 238.281 410.425C221.56 395.491 216.878 309.167 182.099 273.324C146.986 237.779 81.7748 252.415 42.9828 237.779C4.19067 223.143 -7.51382 179.235 4.5251 141.002C16.564 102.768 52.6808 69.9119 93.4794 43.3279C134.278 16.744 180.093 -3.86603 222.229 0.614411C264.031 5.39355 302.154 35.5619 348.303 60.6523Z" fill="#931BF1"/>
</svg>
