<svg width="599" height="282" viewBox="0 0 599 282" fill="none" xmlns="http://www.w3.org/2000/svg">
<path d="M317 246.75H281.778V211.5H317V70.5H281.778V35.25L317 35.25V-4.71786e-05L1.23266e-05 -6.10352e-05L1.07858e-05 35.2499H35.2222V70.4999H9.24496e-06L3.08165e-06 211.5H35.2222V246.75H1.54083e-06L0 282L317 282V246.75ZM70.4445 70.4999L70.4445 35.2499H105.667V70.4999L70.4445 70.4999ZM140.889 70.4999V35.2499H176.111V70.4999H140.889ZM211.333 70.4999V35.2499L246.556 35.25L246.556 70.4999H211.333ZM70.4444 246.75L70.4445 211.5H105.667V246.75H70.4444ZM140.889 246.75V211.5L176.111 211.5V246.75L140.889 246.75ZM211.333 246.75L211.333 211.5H246.556V246.75H211.333Z" fill="#931BF1"/>
<path d="M317 246.75H281.778V211.5H317V70.5H281.778V35.25L317 35.25V-4.71786e-05L1.23266e-05 -6.10352e-05L1.07858e-05 35.2499H35.2222V70.4999H9.24496e-06L3.08165e-06 211.5H35.2222V246.75H1.54083e-06L0 282L317 282V246.75ZM70.4445 70.4999L70.4445 35.2499H105.667V70.4999L70.4445 70.4999ZM140.889 70.4999V35.2499H176.111V70.4999H140.889ZM211.333 70.4999V35.2499L246.556 35.25L246.556 70.4999H211.333ZM70.4444 246.75L70.4445 211.5H105.667V246.75H70.4444ZM140.889 246.75V211.5L176.111 211.5V246.75L140.889 246.75ZM211.333 246.75L211.333 211.5H246.556V246.75H211.333Z" fill="#931BF1"/>
<path d="M599 246.75H563.778V211.5H599V70.5H563.778V35.25L599 35.25V-4.71786e-05L282 -6.10352e-05V35.2499H317.222V70.4999H282V211.5H317.222V246.75H282V282L599 282V246.75ZM352.444 70.4999V35.2499H387.667V70.4999L352.444 70.4999ZM422.889 70.4999V35.2499H458.111V70.4999H422.889ZM493.333 70.4999V35.2499L528.556 35.25V70.4999H493.333ZM352.444 246.75V211.5H387.667V246.75H352.444ZM422.889 246.75V211.5L458.111 211.5V246.75L422.889 246.75ZM493.333 246.75V211.5H528.556V246.75H493.333Z" fill="#931BF1"/>
<path d="M599 246.75H563.778V211.5H599V70.5H563.778V35.25L599 35.25V-4.71786e-05L282 -6.10352e-05V35.2499H317.222V70.4999H282V211.5H317.222V246.75H282V282L599 282V246.75ZM352.444 70.4999V35.2499H387.667V70.4999L352.444 70.4999ZM422.889 70.4999V35.2499H458.111V70.4999H422.889ZM493.333 70.4999V35.2499L528.556 35.25V70.4999H493.333ZM352.444 246.75V211.5H387.667V246.75H352.444ZM422.889 246.75V211.5L458.111 211.5V246.75L422.889 246.75ZM493.333 246.75V211.5H528.556V246.75H493.333Z" fill="#931BF1"/>
</svg>
